<?xml version='1.0' encoding='utf-8'?>
<svg xmlns="http://www.w3.org/2000/svg" version="1.0" width="3100.000000pt" height="1999.000000pt" viewBox="0 0 3100.000000 1999.000000" preserveAspectRatio="xMidYMid meet"> <metadata> Created by potrace 1.13, written by Peter Selinger 2001-2015 </metadata> <g transform="translate(0.000000,1999.000000) scale(0.100000,-0.100000)" fill="#000000" stroke="none"> <path d="M13305 18999 c-75 -11 -201 -53 -280 -92 -84 -42 -156 -99 -261 -210 -87 -91 -93 -95 -150 -107 -146 -29 -282 -80 -336 -126 -78 -65 -169 -212 -287 -464 -120 -256 -207 -389 -295 -449 -25 -18 -83 -47 -129 -67 -97 -40 -205 -124 -233 -181 -16 -33 -19 -71 -24 -293 l-5 -255 -29 -60 c-20 -41 -55 -86 -113 -142 -103 -102 -88 -109 65 -27 72 37 113 54 128 50 30 -8 54 -64 54 -130 0 -46 4 -57 21 -66 17 -10 26 -6 64 32 24 24 47 57 50 73 20 87 28 108 57 140 17 20 60 53 97 75 99 58 145 102 215 209 61 92 92 129 100 120 2 -2 8 -40 13 -83 6 -58 13 -82 25 -90 35 -22 49 12 59 136 10 143 24 185 68 215 19 13 39 22 45 20 30 -10 15 -137 -36 -295 -36 -116 -35 -135 8 -99 21 18 46 61 79 139 69 164 106 226 185 313 l70 77 0 70 c0 39 -6 96 -14 127 -30 119 -30 138 -2 164 22 21 26 33 26 83 0 53 1 57 16 42 10 -10 19 -45 25 -94 36 -327 101 -474 252 -568 85 -53 140 -107 161 -158 9 -20 18 -78 22 -130 8 -114 -7 -175 -64 -264 -68 -105 -108 -125 -404 -204 -248 -65 -414 -128 -631 -236 -310 -156 -550 -308 -754 -481 -143 -120 -306 -229 -583 -388 -211 -121 -485 -313 -596 -417 -74 -69 -100 -125 -115 -241 -27 -209 27 -401 162 -578 91 -120 158 -191 388 -413 256 -247 341 -318 528 -444 192 -130 240 -186 399 -463 138 -241 197 -316 324 -412 52 -39 120 -95 152 -124 37 -34 67 -53 82 -53 31 0 78 -18 88 -33 10 -16 -12 -62 -106 -226 -160 -280 -223 -422 -277 -629 -31 -115 -31 -121 -30 -339 1 -292 20 -384 118 -575 27 -55 37 -86 37 -123 0 -52 -12 -80 -126 -277 -64 -109 -154 -326 -257 -614 -193 -542 -346 -928 -442 -1122 -66 -133 -132 -169 -294 -159 -96 6 -190 31 -343 91 -187 72 -333 98 -560 98 -196 -1 -310 -20 -642 -107 -135 -36 -312 -80 -395 -99 -82 -19 -211 -51 -285 -71 -314 -86 -548 -124 -810 -132 l-175 -5 -53 28 c-109 60 -406 324 -573 511 -61 68 -97 76 -174 39 -139 -68 -433 -479 -514 -718 -13 -37 -28 -124 -37 -212 -9 -96 -21 -164 -33 -190 -10 -23 -55 -87 -99 -143 -180 -229 -317 -501 -379 -751 -24 -94 -27 -127 -27 -272 0 -135 4 -181 22 -253 37 -149 85 -226 159 -251 104 -35 134 -23 294 125 99 91 138 148 173 254 9 28 27 69 39 92 31 59 422 469 542 568 55 46 123 106 150 135 28 28 68 66 90 83 38 31 42 32 143 32 l104 0 68 73 c38 40 82 78 97 84 20 9 133 14 373 16 352 4 576 -5 890 -36 213 -21 817 -23 944 -4 44 7 172 17 285 23 254 14 380 4 638 -50 219 -46 355 -68 473 -77 69 -5 102 -2 175 15 222 53 422 226 710 616 103 139 215 254 442 454 164 144 225 211 343 382 36 51 95 130 132 175 92 113 140 185 183 277 20 42 42 77 50 77 27 0 526 -472 807 -763 178 -183 236 -238 321 -295 110 -75 149 -113 243 -237 34 -44 102 -124 153 -178 50 -54 102 -117 115 -140 59 -100 96 -295 121 -632 27 -362 48 -485 132 -755 65 -211 153 -410 266 -600 28 -47 143 -224 255 -395 285 -430 429 -672 594 -996 83 -164 87 -190 55 -332 -34 -150 12 -285 148 -437 65 -72 89 -110 161 -255 46 -93 84 -173 84 -177 0 -5 -38 -8 -83 -8 -46 0 -158 -3 -250 -7 -132 -5 -164 -9 -160 -20 3 -7 4 -14 2 -15 -2 -2 -2312 -5 -5134 -8 l-5130 -5 -3 -573 -2 -572 874 0 c544 0 884 -4 900 -10 l26 -10 0 -315 0 -315 835 0 835 0 0 309 c0 268 2 312 16 325 14 15 584 16 6123 16 4736 0 6110 -3 6119 -12 9 -9 12 -95 12 -325 l0 -313 1675 0 1675 0 0 319 c0 282 2 320 16 325 9 3 247 6 530 6 283 0 514 4 514 8 0 4 -4 12 -9 17 -16 16 -151 351 -151 374 0 11 -4 30 -10 43 -5 13 -27 83 -50 155 -22 73 -58 193 -81 265 -50 164 -79 261 -109 358 -12 41 -30 100 -40 130 -18 57 -52 168 -94 305 -14 44 -43 141 -66 215 -23 74 -53 173 -67 220 -14 47 -36 119 -49 160 -12 41 -41 136 -64 210 -76 248 -121 395 -130 420 -4 14 -20 63 -33 110 -14 47 -44 145 -66 218 -23 72 -59 192 -82 265 -22 72 -52 170 -66 217 -14 47 -36 117 -48 155 -12 39 -30 97 -40 130 -16 55 -55 182 -74 245 -5 14 -16 52 -26 85 -10 33 -28 92 -40 130 -12 39 -35 111 -49 160 -15 50 -33 108 -40 130 -8 22 -25 78 -39 125 -14 47 -44 146 -67 220 -23 74 -53 173 -67 220 -27 90 -47 155 -113 370 -23 74 -53 173 -67 220 -14 47 -36 117 -48 155 -13 39 -35 111 -50 160 -14 50 -32 108 -39 130 -8 22 -24 74 -36 115 -12 41 -28 93 -35 115 -14 45 -63 205 -102 335 -13 47 -29 96 -33 110 -5 14 -23 72 -40 130 -18 58 -36 116 -40 130 -5 14 -23 72 -41 130 -17 58 -37 123 -44 145 -7 22 -23 74 -35 115 -12 41 -28 93 -36 115 -7 22 -25 81 -39 130 -15 50 -31 101 -35 115 -8 23 -29 91 -130 420 -75 245 -87 284 -114 375 -15 50 -33 108 -41 130 -7 22 -24 78 -38 125 -42 138 -108 353 -117 380 -5 14 -16 52 -26 85 -9 33 -27 92 -39 130 -12 39 -30 97 -40 130 -10 33 -21 71 -26 85 -4 14 -22 72 -39 130 -18 58 -35 116 -40 130 -8 24 -81 263 -99 325 -5 17 -28 90 -50 163 -64 207 -120 389 -148 482 -38 124 -73 239 -88 285 -7 22 -17 56 -23 75 -24 79 -75 248 -87 285 -7 22 -23 74 -35 115 -12 41 -29 94 -37 117 -8 22 -12 49 -9 60 3 10 77 66 164 125 86 59 261 178 387 265 448 308 560 385 725 498 63 43 156 106 205 140 50 34 158 108 240 164 83 57 161 113 173 124 43 40 65 97 66 167 0 78 -24 132 -81 179 -49 40 -103 55 -177 47 -63 -6 -94 -25 -416 -247 -74 -51 -215 -147 -312 -213 -392 -268 -559 -382 -688 -471 -74 -51 -207 -142 -295 -202 -185 -127 -638 -437 -771 -529 -173 -119 -309 -213 -419 -288 -60 -41 -173 -118 -250 -171 -77 -53 -148 -101 -158 -107 -10 -5 -112 -13 -225 -18 -114 -5 -274 -13 -357 -19 -82 -5 -242 -15 -355 -21 -113 -6 -275 -15 -360 -21 -85 -5 -238 -14 -340 -20 -1021 -56 -964 -49 -1040 -128 -115 -118 -81 -300 68 -369 53 -24 59 -25 201 -18 80 3 216 11 301 16 85 6 274 17 420 25 264 15 453 26 775 46 94 5 251 14 350 19 447 24 673 40 708 50 35 10 83 41 279 177 42 29 82 53 88 53 12 0 23 -24 45 -105 10 -33 21 -71 25 -85 5 -14 16 -52 25 -85 10 -33 23 -78 30 -100 14 -42 50 -167 80 -270 9 -33 20 -71 25 -85 4 -14 16 -52 25 -85 10 -33 22 -71 26 -85 5 -14 44 -149 89 -300 85 -291 112 -382 154 -520 14 -47 73 -247 131 -445 57 -198 109 -373 114 -390 6 -16 116 -390 246 -830 236 -802 280 -949 295 -995 5 -14 16 -52 25 -85 29 -102 121 -413 135 -455 4 -14 16 -52 25 -85 9 -33 20 -71 25 -85 4 -14 16 -52 25 -85 9 -33 20 -71 25 -85 5 -14 16 -52 25 -85 9 -33 21 -71 25 -85 5 -14 16 -52 25 -85 9 -33 21 -71 25 -85 5 -14 16 -52 25 -85 9 -33 23 -78 30 -100 7 -22 18 -60 25 -85 7 -25 18 -65 26 -90 7 -25 25 -85 40 -135 24 -81 37 -126 90 -305 9 -30 20 -66 24 -80 5 -14 16 -52 25 -85 10 -33 29 -98 42 -145 23 -77 38 -129 89 -300 9 -30 20 -66 24 -80 5 -14 16 -52 25 -85 9 -33 21 -71 25 -85 5 -14 16 -52 25 -85 10 -33 34 -116 55 -185 21 -69 45 -152 55 -185 10 -33 28 -94 40 -135 145 -482 159 -530 147 -542 -8 -8 -26 -8 -69 0 -224 44 -507 65 -853 66 -342 0 -587 -18 -855 -65 -217 -38 -300 -56 -450 -95 -221 -59 -425 -126 -543 -180 -29 -13 -55 -24 -59 -24 -11 0 -103 -42 -248 -114 -144 -71 -322 -176 -433 -256 -35 -25 -74 -52 -85 -60 -60 -41 -261 -218 -333 -291 -195 -203 -352 -437 -444 -661 -18 -45 -29 -58 -49 -62 -14 -3 -159 -6 -321 -7 -275 -2 -385 3 -1254 51 -99 6 -252 10 -340 10 l-161 0 40 32 c129 105 240 217 253 254 43 123 50 129 193 169 98 28 180 74 329 185 245 183 490 419 548 527 61 116 114 280 128 394 8 72 -16 186 -58 269 -39 80 -84 110 -171 117 l-63 5 -205 -105 c-229 -118 -366 -179 -454 -202 -34 -9 -165 -22 -305 -30 -135 -9 -274 -20 -310 -25 -86 -13 -148 -12 -210 1 -84 18 -101 40 -160 206 -30 82 -78 200 -107 263 -140 297 -161 363 -288 920 -75 328 -166 607 -292 893 -40 92 -88 218 -105 280 -34 122 -37 173 -28 542 3 133 1 170 -14 220 -28 96 -92 208 -209 368 -59 81 -130 187 -158 235 -54 92 -337 661 -434 872 -270 588 -528 1030 -745 1280 -245 281 -282 342 -288 471 -5 103 8 154 101 389 138 349 166 486 182 890 9 232 25 470 36 535 6 33 28 139 51 235 22 96 48 241 58 322 23 176 66 424 85 491 20 67 52 116 81 123 44 11 64 -19 134 -201 74 -189 220 -425 328 -527 55 -52 83 -70 133 -87 136 -45 273 -45 350 1 61 36 387 347 428 408 21 30 57 91 80 135 56 102 115 187 211 300 42 50 108 133 147 185 39 52 97 120 129 150 182 170 209 205 329 413 75 131 95 186 95 260 0 58 -18 99 -68 158 -56 65 -138 112 -278 159 -149 49 -172 49 -313 -1 -87 -31 -97 -37 -123 -78 -37 -60 -38 -132 -2 -216 23 -54 26 -77 31 -225 l5 -166 -30 -60 c-39 -76 -90 -128 -227 -225 -60 -43 -148 -115 -195 -159 -95 -89 -161 -128 -236 -136 -47 -6 -52 -4 -75 23 -23 28 -276 584 -348 764 -16 43 -64 180 -106 305 -117 349 -211 528 -355 675 -72 74 -151 118 -327 184 -129 48 -230 103 -256 138 -20 26 -20 29 -4 119 9 51 21 129 27 173 30 232 92 292 335 317 166 17 204 27 242 61 30 28 35 41 44 107 6 41 17 105 24 142 8 36 12 82 8 101 -3 21 1 45 11 65 11 21 16 58 16 114 0 46 4 88 8 94 4 6 35 26 69 43 97 48 97 81 1 230 -86 133 -90 150 -82 371 l6 185 -47 95 c-26 52 -64 137 -85 187 -22 51 -52 112 -68 135 -15 24 -35 59 -42 78 -61 156 -260 255 -610 305 -115 16 -444 19 -545 4z m-1326 -4004 c58 -50 75 -91 71 -169 -9 -178 -2 -368 28 -711 50 -573 89 -812 156 -944 32 -63 34 -101 6 -101 -11 0 -45 14 -75 31 -80 45 -145 59 -291 64 -92 2 -141 8 -160 18 -43 23 -96 82 -162 182 -34 52 -117 150 -196 234 -148 154 -192 210 -336 426 -135 203 -240 437 -240 539 0 39 4 48 33 69 43 32 68 41 237 82 209 51 448 130 640 213 114 49 228 91 247 92 6 0 25 -11 42 -25z"/> </g> </svg>