<?xml version='1.0' encoding='utf-8'?>
<svg xmlns="http://www.w3.org/2000/svg" version="1.1" width="600px" height="976px" viewBox="0 0 600 976"> <g id="layer1"> <g style="fill:rgb(0,0,0); fill-opacity:1.0; stroke-linejoin: miter"> <path d="M311.457,502.98456C311.5474,502.98456,311.62936,503.04965,311.693,503.18604C311.74713,503.3033,311.81927,503.65515,311.8554,503.95288C311.9015,504.38516,311.87393,504.5707,311.6857,504.5707C311.5793,504.5707,311.4216,504.51144,311.19684,504.40393C310.95325,504.2957,310.75476,504.19647,310.74573,504.18744C310.72772,504.1784,310.79987,503.9619,310.8991,503.70026C311.06683,503.23898,311.27835,502.98456,311.457,502.98456 Z M303.9396,472.22324C305.55258,472.22324,307.194,472.24802,308.73395,472.29657C310.29468,472.3507,312.04486,472.4319,312.6132,472.48602C313.18152,472.53113,314.3814,472.6123,315.27454,472.66644C316.16766,472.71155,317.22314,472.78375,317.62012,472.82886C318.01703,472.87393,318.8109,472.95514,319.37927,473.00925C319.94763,473.07242,320.90393,473.18066,321.49933,473.25284C322.09476,473.33405,323.0691,473.45132,323.6645,473.51447C324.2599,473.58664,325.07184,473.70392,325.46878,473.77606C325.86572,473.8573,326.33484,473.92044,326.50623,473.92044C327.02045,473.92044,327.20993,474.01068,327.30914,474.29932C327.39035,474.51587,327.36328,474.63312,327.18286,474.985C326.58743,476.15778,326.4521,477.54706,326.81296,478.9093C326.93927,479.39648,327.1197,479.90164,327.20993,480.037C327.30914,480.1723,327.41742,480.37076,327.44446,480.47903C327.48056,480.5963,327.5437,480.68652,327.59784,480.68652C327.64294,480.68652,327.7422,480.8399,327.81433,481.02032C327.94968,481.33606,327.94067,481.40826,327.71512,482.26526C327.57977,482.76147,327.44446,483.3659,327.4084,483.6185C327.36328,483.86206,327.255,484.37628,327.1558,484.7462C326.8581,485.82877,326.67764,486.5595,326.55133,487.13687C326.48822,487.4346,326.38898,487.78644,326.3258,487.92175C326.2356,488.1202,326.2356,488.21045,326.3619,488.454C326.56036,488.84192,326.54233,489.33813,326.3258,489.6629C326.22656,489.80725,326.1454,489.99667,326.1454,490.06885C326.1454,490.141,326.04614,490.39362,325.91986,490.62817C325.79355,490.86273,325.69434,491.10632,325.69434,491.16943C325.69434,491.2326,325.62213,491.4311,325.5229,491.6025C325.43268,491.7739,325.32443,492.0175,325.28833,492.14377C325.23422,492.35126,325.0628,492.74823,324.61176,493.72253C324.5215,493.92102,324.32306,494.36307,324.16064,494.7149C324.0073,495.05774,323.8449,495.40955,323.79077,495.48172C323.74567,495.5539,323.6645,495.7163,323.6194,495.8426C323.56525,495.96887,323.48407,496.1313,323.43896,496.20343C323.38483,496.2756,323.29462,496.45605,323.22244,496.6094C323.15927,496.75375,323.07806,496.94318,323.042,497.01538C322.9247,497.25897,322.13983,498.69336,321.67975,499.49628C321.43616,499.92932,321.16553,500.39844,321.09338,500.54276C320.86783,500.9758,320.0108,501.88696,319.8394,501.88696C319.74918,501.88696,319.47852,502.0403,319.23495,502.2298C318.71866,502.63928,318.36957,502.8562,318.1589,502.8562C317.83585,502.8562,317.83826,502.34598,318.06213,501.23743C318.13434,500.85852,318.2516,500.40744,318.3238,500.24506C318.39594,500.08264,318.47714,499.78497,318.51324,499.5865C318.54932,499.388,318.64856,498.98206,318.7478,498.68433C318.838,498.38663,318.94626,497.7371,318.97333,497.24994C319.0094,496.75375,319.0906,496.1944,319.16278,495.99594C319.23495,495.79745,319.28906,495.36444,319.28906,495.0216C319.28906,494.02927,318.9553,491.99042,318.69366,491.37695C318.31476,490.49286,317.91782,489.717,317.78247,489.60876C317.71936,489.55463,317.66522,489.45538,317.66522,489.40125C317.66522,489.33813,317.4577,489.0855,317.20514,488.8239C316.88034,488.49008,316.64578,488.33673,316.37512,488.26456C314.80542,487.8947,314.19196,487.50674,313.59656,486.50537C313.22665,485.8919,312.65833,485.08,312.4508,484.86346C311.99973,484.4124,311.4855,483.7448,311.3502,483.42908C311.13367,482.9419,310.36685,482.18408,309.78946,481.8864C309.14896,481.5616,307.94006,481.2278,307.0199,481.12857C306.73108,481.0946,306.32852,481.07928,305.89368,481.07928C304.94296,481.07928,303.8379,481.15247,303.42935,481.26392C303.1948,481.33606,302.7437,481.4353,302.41895,481.49844C302.09418,481.55255,301.61603,481.66083,301.3544,481.74203C301.16287,481.79486,300.96167,481.82837,300.83575,481.82837C300.78967,481.82837,300.7537,481.82388,300.73193,481.8142C300.69333,481.8004,300.6149,481.79422,300.5083,481.79422C299.91757,481.79422,298.46237,481.98474,298.13373,482.12994C297.93527,482.22015,297.67365,482.3194,297.54736,482.3555C297.43008,482.3916,297.2226,482.49985,297.09628,482.58102C296.96997,482.66223,296.63617,482.8968,296.33847,483.08624C295.83328,483.42004,294.61536,484.55676,294.26355,485.01685C293.199,486.44223,292.36902,488.24652,292.17056,489.60876C291.945,491.16043,291.90894,492.4866,292.08035,493.0369C292.26077,493.65942,292.26077,494.28186,292.08035,494.91336C291.91797,495.48172,291.936,495.8426,292.20667,497.286C292.42316,498.4137,292.7299,499.06326,293.2351,499.4692C294.04703,500.12778,294.33572,500.41644,294.44397,500.68713C294.51614,500.84048,294.60635,500.99384,294.6515,501.0209C294.69656,501.057,294.76874,501.21036,294.7958,501.37274C294.8319,501.5261,294.9582,501.84186,295.07547,502.06738C295.19275,502.2929,295.292,502.51846,295.292,502.5816C295.292,502.64478,295.39124,502.87933,295.51752,503.1139C295.9325,503.8897,295.716,504.53024,294.96722,504.77383C294.82288,504.8189,294.5432,504.91815,294.34473,504.99036C294.12204,505.0743,293.93774,505.11838,293.7536,505.11838C293.48273,505.11838,293.21216,505.023,292.8201,504.8189C292.48633,504.64752,291.9901,504.44006,291.70145,504.35886C291.466,504.28778,291.33118,504.2517,291.20328,504.2517C291.0714,504.2517,290.9469,504.29004,290.7271,504.36786C290.5479,504.42966,290.38565,504.46182,290.22653,504.46182C289.92105,504.46182,289.62723,504.34326,289.24762,504.0882C289.0762,503.97092,288.88675,503.87167,288.8236,503.87167C288.76047,503.87167,288.70633,503.83557,288.70633,503.7995C288.70633,503.76343,288.58002,503.65515,288.42667,503.56494C288.26425,503.47473,288.05676,503.3304,287.96655,503.2492C287.74103,503.0688,286.49606,501.8238,286.24347,501.5261C285.9277,501.16522,285.09772,499.86615,284.76395,499.22565C284.63763,498.98206,284.42114,498.56708,284.2858,498.3235C284.15048,498.07086,283.76257,497.33112,283.4378,496.68158C283.104,496.023,282.79727,495.46368,282.75217,495.43658C282.70703,495.40955,282.6439,495.2562,282.61682,495.0938C282.58075,494.94043,282.4815,494.70587,282.40033,494.5796C282.31012,494.45325,282.17477,494.16458,282.08456,493.93005C281.99435,493.6955,281.8861,493.47894,281.841,493.4519C281.79587,493.41583,281.7598,493.33463,281.7598,493.25342C281.7598,493.18127,281.66055,492.91962,281.53427,492.66705C281.40796,492.42346,281.30872,492.1618,281.30872,492.09866C281.30872,492.0265,281.20947,491.7829,281.0832,491.5484C280.95688,491.31378,280.85764,491.07025,280.85764,491.00708C280.85764,490.93494,280.77646,490.75446,280.67722,490.5921C280.578,490.4297,280.4968,490.24023,280.4968,490.1681C280.4968,490.09592,280.38852,489.82526,280.2532,489.56366C280.01865,489.10355,280.00964,489.0584,280.12692,488.65247C280.28027,488.1292,280.28027,488.05707,280.154,487.54285C280.04572,487.08276,279.80212,485.78363,279.67584,484.97174C279.6217,484.674,279.50443,484.02448,279.4142,483.52832C279.05334,481.66083,279.0263,481.44434,279.14355,481.1015C279.1977,480.92108,279.29694,480.7497,279.3691,480.7136C279.43225,480.66846,279.54953,480.49707,279.6217,480.32568C279.7029,480.15424,279.8202,479.9107,279.90137,479.78436C280.37048,478.98145,280.52386,476.89752,280.19006,475.90515C280.09985,475.6345,279.96454,475.24658,279.90137,475.04813C279.72998,474.56097,279.73898,474.5068,280.0006,474.24518C280.14496,474.10086,280.36145,474.01068,280.60504,473.98358C280.82156,473.95654,281.48013,473.8663,282.07556,473.7851C282.67096,473.6949,283.6092,473.5776,284.15048,473.51447C284.7008,473.45132,285.69315,473.33405,286.36072,473.25284C289.69867,472.8559,295.31906,472.44092,299.1261,472.3056C300.60095,472.25027,302.2548,472.22324,303.9396,472.22324 Z M253.70305,453.62213C252.97232,453.62213,252.8009,453.64923,252.8009,453.75748C252.8009,453.87473,252.30472,454.0732,252.00702,454.0732C251.7905,454.0732,250.77109,454.54233,250.51846,454.75885C250.33766,454.91708,250.21976,454.96204,249.881,454.96204C249.81413,454.96204,249.73868,454.9603,249.65242,454.9573C249.59515,454.9547,249.53903,454.95343,249.4842,454.95343C249.15901,454.95343,248.88013,454.99872,248.68712,455.08365C248.49767,455.1648,247.91127,455.36328,247.38803,455.51663C246.86478,455.67902,246.35959,455.8775,246.26035,455.96774C245.90851,456.27448,245.61981,456.3737,245.08755,456.3737C244.50116,456.3737,243.86966,456.51804,243.27425,456.77966C243.06674,456.86987,242.74197,456.97812,242.55252,457.0142C242.01123,457.10443,241.28952,457.54648,241.16321,457.86224C241.10007,458.01563,240.97377,458.17798,240.87453,458.23212C240.71214,458.32233,240.70313,458.4486,240.7302,461.2092C240.74823,463.239,240.78432,464.11407,240.85649,464.1592C240.91965,464.1953,241.00986,464.6103,241.06398,465.0794C241.12714,465.5485,241.27148,466.40555,241.39778,466.9739C241.51506,467.54227,241.61429,468.11963,241.61429,468.25494C241.61429,468.39026,241.6594,468.6068,241.71353,468.75116C241.76765,468.88647,241.88493,469.4007,241.98418,469.89688C242.0834,470.384,242.18265,470.81705,242.20068,470.85312C242.22775,470.89825,242.327,471.2862,242.4172,471.7282C242.64275,472.75665,242.84122,473.55057,243.05772,474.2813C243.15697,474.60605,243.3013,475.11127,243.38249,475.409C243.66217,476.50958,243.84259,477.13208,243.9328,477.34857C243.98694,477.47488,244.07715,477.79962,244.14029,478.0703C244.20346,478.34094,244.28464,478.60257,244.32072,478.65668C244.35681,478.7018,244.45605,479.02655,244.54626,479.37842C244.63647,479.72125,244.73572,480.04602,244.77179,480.10013C244.80789,480.14526,244.88908,480.4159,244.95224,480.68652C245.01538,480.95718,245.12364,481.26392,245.17776,481.36316C245.24092,481.46237,245.34015,481.7691,245.4033,482.03976C245.46646,482.3104,245.5747,482.61713,245.63786,482.71637C245.69199,482.8156,245.7732,483.04114,245.80927,483.21252C245.84537,483.38394,245.92654,483.64557,245.99872,483.79895C246.12503,484.08762,246.39566,484.85443,246.65729,485.64832C246.7475,485.91895,246.86478,486.2257,246.91891,486.32495C246.97304,486.4242,247.07227,486.6858,247.14444,486.91132C247.46922,487.8947,247.65868,488.3728,247.794,488.55322C247.86617,488.67053,247.92932,488.84192,247.92932,488.94116C247.92932,489.0404,248.0105,489.2569,248.10974,489.41928C248.20898,489.5817,248.29018,489.7531,248.29018,489.80725C248.29018,489.9245,248.633,490.75446,248.9758,491.4762C249.09308,491.7288,249.19232,491.98138,249.19232,492.03552C249.19232,492.09866,249.29156,492.33325,249.40884,492.5678C249.52612,492.81134,249.72458,493.22635,249.85089,493.497C250.36511,494.60663,251.85365,497.60178,251.91681,497.64685C251.95288,497.67395,252.0431,497.83633,252.1243,498.00772C252.20549,498.17914,252.40396,498.549,252.57536,498.81964C252.74677,499.09027,252.95428,499.45117,253.02643,499.60452C253.09862,499.7669,253.20686,499.90222,253.25198,499.90222C253.3061,499.90222,253.3422,499.94733,253.3422,499.99246C253.3422,500.35333,255.14648,502.50043,255.80505,502.92444C255.96346,503.02716,256.2194,503.0771,256.5005,503.0771C256.8118,503.0771,257.154,503.0159,257.42892,502.89737C257.65445,502.79816,257.9702,502.68985,258.13257,502.65378C258.6017,502.5636,259.56702,502.1576,259.86472,501.9411C260.04514,501.8058,260.3158,501.7336,260.81195,501.68848C261.77725,501.6073,263.62665,501.04797,264.25818,500.642C264.4792,500.502,264.78442,500.4222,265.03632,500.4222C265.0929,500.4222,265.1468,500.42624,265.1964,500.4345C265.1987,500.43494,265.2017,500.43512,265.20532,500.43512C265.3599,500.43512,266.71622,500.06638,267.65924,499.75787C269.0666,499.30682,269.1839,499.09933,269.1568,496.97028C269.13876,495.40955,269.00345,494.16458,268.63358,492.1889C268.49823,491.49423,268.32684,490.51996,268.23663,490.02374C268.14642,489.5276,268.0291,489.02234,267.975,488.89606C267.92087,488.76978,267.83066,488.40894,267.77655,488.0841C267.7224,487.75934,267.62317,487.31732,267.551,487.09177C267.48785,486.86624,267.36154,486.3971,267.28033,486.05432C266.8744,484.32217,266.80222,484.04254,266.712,483.7538C266.60373,483.42908,266.4143,482.73438,266.18875,481.8142C266.10754,481.51654,265.97223,481.06543,265.873,480.82184C265.78278,480.56924,265.7016,480.2986,265.7016,480.22644C265.7016,480.14526,265.62042,479.8205,265.52118,479.51373C265.42194,479.198,265.34976,478.80106,265.35876,478.6206C265.3678,478.4402,265.34073,478.10638,265.30466,477.87183C265.2415,477.4839,265.25052,477.42975,265.46704,477.2313C265.62943,477.07794,265.9001,476.96967,266.31506,476.89752C266.64886,476.84338,267.06384,476.73514,267.24426,476.672C267.40152,476.61234,267.53842,476.58203,267.65714,476.58203C267.93344,476.58203,268.1113,476.74622,268.21857,477.08698C268.29074,477.3035,268.38098,477.56512,268.41705,477.66437C268.46216,477.7636,268.57043,478.16956,268.66965,478.56647C268.8952,479.52277,269.21997,480.61435,269.30115,480.73163C269.33725,480.77673,269.41843,480.98422,269.4816,481.18268C269.55377,481.38116,269.68005,481.6428,269.77026,481.76007C269.8695,481.87738,269.94168,482.01266,269.94168,482.06677C269.94168,482.12094,270.0229,482.25626,270.13113,482.3645C270.25745,482.49985,270.3296,482.72537,270.35666,483.08624C270.38373,483.38394,270.46494,483.79895,270.5371,484.02448C270.73557,484.68304,271.02426,485.8197,271.16858,486.58655C271.24078,486.98352,271.34,487.37143,271.38513,487.4436C271.4212,487.52478,271.50238,487.91272,271.56555,488.3097C271.68283,489.13965,271.9264,489.717,272.24216,489.9245C272.4767,490.07788,272.78345,490.70035,272.8827,491.20557C272.90973,491.37695,273.018,491.66565,273.10822,491.84607C273.20746,492.03552,273.2796,492.26105,273.2796,492.36932C273.2796,492.46857,273.38788,492.74823,273.50516,493.00082C273.63147,493.2444,273.7307,493.51505,273.7307,493.58722C273.7307,493.65942,273.83896,493.92102,273.95624,494.17365C274.08252,494.41718,274.18176,494.68787,274.18176,494.76C274.18176,494.84122,274.2359,494.97653,274.30807,495.07574C274.37122,495.175,274.4795,495.41858,274.54263,495.61707C274.60577,495.8155,274.71405,496.05908,274.76816,496.15833C274.8313,496.25757,274.93054,496.4831,274.98468,496.6635C275.03882,496.84396,275.1651,497.14166,275.26434,497.33112C275.3636,497.5296,275.44476,497.7371,275.44476,497.80023C275.44476,497.8634,275.52597,498.04382,275.6252,498.20618C275.72443,498.3686,275.80563,498.56708,275.80563,498.63922C275.80563,498.71143,275.91388,498.97302,276.03116,499.22565C276.15747,499.4692,276.2567,499.73083,276.2567,499.79398C276.2567,499.85712,276.32886,500.06464,276.4281,500.24506C276.5183,500.42548,276.6717,500.75928,276.77994,500.9848C276.87918,501.21036,277.07764,501.6524,277.23102,501.97717C277.37537,502.30194,277.52875,502.65378,277.5558,502.76205C277.5919,502.86127,277.67307,503.0056,277.74524,503.05975C277.8174,503.12292,277.88055,503.24017,277.88055,503.3304C277.88055,503.4116,277.9798,503.6281,278.08807,503.7995C278.20532,503.97092,278.33163,504.2145,278.3587,504.3318C278.39478,504.45807,278.50305,504.65656,278.6023,504.77383C278.70154,504.8911,278.7827,505.05347,278.7827,505.1347C278.7827,505.2249,278.8549,505.3873,278.9541,505.50458C279.04434,505.62183,279.1526,505.8203,279.1887,505.9466C279.22476,506.07294,279.333,506.2804,279.42322,506.41577C279.52246,506.54202,279.59464,506.70444,279.59464,506.7766C279.59464,506.83975,279.69388,507.04724,279.8202,507.22766C279.94647,507.40808,280.04572,507.60657,280.04572,507.65167C280.04572,507.73288,280.35245,508.38242,280.60504,508.8335C280.65015,508.90564,280.74036,509.11316,280.82156,509.28455C281.00198,509.70856,281.29968,510.32202,281.5523,510.8272C281.6696,511.06177,281.7598,511.3144,281.7598,511.38657C281.7598,511.46777,281.81393,511.58502,281.87708,511.6482C281.94022,511.71133,282.0485,511.9098,282.11163,512.08124C282.21988,512.3609,282.32816,512.61346,282.79727,513.66C282.8604,513.8043,283.12204,514.3546,283.3656,514.87787C283.61823,515.4011,283.85278,515.93335,283.87982,516.0687C283.91592,516.20404,283.99713,516.3574,284.06927,516.42053C284.14145,516.4747,284.1956,516.5649,284.1956,516.619C284.1956,516.6731,284.42114,517.1693,284.69177,517.72864C284.9624,518.28796,285.18796,518.7842,285.18796,518.8293C285.18796,518.8744,285.24207,518.9646,285.31427,519.01874C285.3864,519.0729,285.48566,519.2984,285.5398,519.5149C285.59393,519.7314,285.69315,519.957,285.77435,520.0201C285.8465,520.08325,285.90967,520.20056,285.90967,520.28174C285.90967,520.3539,286.0089,520.6245,286.11716,520.87714C286.36072,521.39136,286.57727,521.9868,286.8028,522.77167C286.893,523.06934,287.01028,523.40314,287.06442,523.5024C287.11853,523.61066,287.20874,524.03467,287.25385,524.44965C287.29898,524.8646,287.38916,525.3247,287.44333,525.4781C287.49744,525.62244,287.58765,525.97424,287.64178,526.2449C287.6869,526.51556,287.78613,526.84033,287.84927,526.9666C287.91245,527.0929,288.0207,527.4628,288.07483,527.77856C288.12894,528.0943,288.23718,528.4642,288.30035,528.5905C288.3635,528.7168,288.4447,529.0235,288.48077,529.2671C288.51688,529.5197,288.6161,529.96173,288.70633,530.25946C288.80554,530.5571,288.9048,530.9992,288.93185,531.25183C288.96796,531.4954,289.05817,531.9465,289.1303,532.2442C289.2025,532.5419,289.3198,533.29065,289.39194,533.91315C289.834,537.8555,289.8791,538.77576,289.65356,538.96515C289.59506,539.0144,289.43463,539.0364,289.2343,539.0364C288.8477,539.0364,288.3125,538.95465,288.07483,538.82983C287.9395,538.7577,287.4704,538.65845,287.02832,538.6043C286.5953,538.5502,286.10815,538.4509,285.95477,538.3788C285.81042,538.3156,285.1609,538.2164,284.51135,538.16223C283.87082,538.10815,283.13104,538.0089,282.87845,537.9367C282.6088,537.86536,282.137,537.8358,281.45682,537.8358C281.36328,537.8358,281.2658,537.83636,281.16437,537.83746C281.065,537.8395,280.9648,537.8404,280.86426,537.8404C279.59518,537.8404,278.26547,537.6863,277.7723,537.48566C277.58286,537.4044,277.32123,537.3413,277.1859,537.3413C277.04156,537.3413,276.77094,537.2511,276.57245,537.1338C276.22964,536.94434,276.1304,536.9353,274.04645,536.9353C272.16095,536.9353,271.8452,536.9624,271.5926,537.0977C271.43024,537.17896,271.0423,537.27814,270.73557,537.3142C270.41983,537.3413,270.0229,537.44055,269.85147,537.5398C269.68005,537.63,269.47256,537.70215,269.39136,537.70215C269.31018,537.70215,269.0666,537.8014,268.84106,537.9187C268.62454,538.03595,268.34488,538.16223,268.21857,538.19836C268.10132,538.23444,267.8848,538.3607,267.7314,538.48706C267.5871,538.6043,267.41565,538.7306,267.37057,538.7667C266.8744,539.12756,266.2519,539.63275,266.09854,539.79517C265.82788,540.08386,265.25052,540.85065,265.25052,540.9138C265.25052,540.94086,265.15128,541.0852,265.025,541.2386C264.89868,541.38293,264.79944,541.5724,264.79944,541.6626C264.79944,541.7528,264.71826,541.89716,264.61902,541.98737C264.51978,542.0776,264.4386,542.24,264.4386,542.3482C264.4386,542.44745,264.33936,542.673,264.21304,542.84436C264.08676,543.0158,263.98752,543.26843,263.98752,543.40375C263.98752,543.5481,263.9063,543.84576,263.8071,544.0713C263.6808,544.33295,263.5996,544.75696,263.5635,545.3253C263.50037,546.3176,263.68982,548.76245,263.87024,549.2857C263.93338,549.47516,263.98752,549.8721,263.98752,550.16077C263.98752,550.5036,264.06873,550.9006,264.21304,551.28845C264.33936,551.6133,264.4386,552.0102,264.4386,552.15454C264.4386,552.2989,264.51978,552.6056,264.61,552.84015C264.70923,553.0747,264.80847,553.39954,264.83554,553.5709C264.93475,554.1212,265.35876,554.84296,265.93616,555.4564C266.2519,555.7812,266.51352,556.115,266.51352,556.19617C266.51352,556.2683,266.5857,556.4758,266.68494,556.6472C266.77515,556.81866,266.89243,557.1073,266.95557,557.2877C267.0097,557.4682,267.13602,557.76587,267.23523,557.9553C267.33447,558.1538,267.41565,558.37933,267.41565,558.4606C267.41565,558.54175,267.4698,558.659,267.53296,558.71313C267.60513,558.7673,267.70435,558.98376,267.76752,559.1913C267.83066,559.4078,267.9389,559.64233,268.00208,559.71454C268.06522,559.78674,268.16446,560.02124,268.21857,560.22876C268.28174,560.44525,268.35388,560.6167,268.38998,560.6167C268.4351,560.6167,268.5163,560.77,268.57944,560.95044C268.6516,561.1399,268.9854,561.79846,269.33725,562.42096C269.92365,563.47644,270.2845,564.06287,271.1235,565.3169C271.5746,566.0025,271.61966,566.1739,271.43024,566.5167C271.27686,566.7964,271.27686,566.81445,271.5114,567.27454C271.63773,567.53613,271.78204,567.74365,271.82718,567.74365C271.87228,567.74365,271.95346,567.86993,272.0076,568.0143C272.0527,568.16766,272.17902,568.4112,272.28726,568.5465C272.3865,568.6909,272.46768,568.8804,272.46768,568.96155C272.46768,569.0427,272.5489,569.2322,272.65714,569.3765C273.15332,570.07117,273.13528,573.46326,272.6391,574.0406C272.25116,574.4917,271.52045,575.1683,271.20468,575.36676C271.03326,575.47504,270.73557,575.7186,270.55515,575.89905C270.3747,576.07947,270.2033,576.2238,270.18527,576.2238C270.1672,576.2238,269.88754,576.4674,269.5718,576.7741C269.25604,577.07184,268.83203,577.4507,268.64258,577.60406C268.45313,577.7665,268.05618,578.09125,267.76752,578.3258C267.4698,578.56036,267.1721,578.86707,267.09088,579.00244C267.0097,579.1377,266.86536,579.35425,266.77515,579.4805C266.50452,579.8775,266.22485,580.83374,266.2068,581.41113C266.19778,581.70886,266.15265,582.2411,266.11658,582.59296C266.06244,583.03503,266.07147,583.2876,266.14365,583.4229C266.2519,583.63043,267.1631,584.2529,267.35254,584.2529C267.41565,584.2529,267.551,584.31604,267.65024,584.38824C267.74045,584.4604,268.06522,584.56866,268.35388,584.6228C268.6516,584.6859,268.96735,584.81226,269.0576,584.90247C269.21094,585.0558,269.46353,585.0648,273.41495,585.0648C277.0957,585.0648,277.60992,585.0468,277.6821,584.9295C277.71817,584.8483,277.9798,584.7311,278.25946,584.6679C278.53012,584.60474,278.8549,584.4875,278.97217,584.40625C279.08945,584.3251,279.26987,584.2529,279.3691,584.2529C279.46835,584.2529,279.7119,584.1717,279.90137,584.0815C280.09082,583.98224,280.37048,583.874,280.52386,583.8469C280.68625,583.81085,280.94788,583.70264,281.11026,583.61237C281.27264,583.52216,281.48013,583.441,281.57034,583.441C281.66055,583.441,281.9312,583.34174,282.17477,583.21545C282.41837,583.0891,282.67096,582.98987,282.74313,582.98987C282.80627,582.98987,283.04987,582.8906,283.28442,582.7824C283.50995,582.66516,284.06027,582.3945,284.4933,582.178C285.40448,581.7269,286.0901,581.30286,286.53217,580.915L286.83887,580.6443L286.82986,579.68805C286.81183,578.6506,286.79376,578.5874,286.23444,578.00104C285.95477,577.69434,285.90967,577.5951,285.90967,577.20715C285.90967,576.96356,285.8285,576.5305,285.73825,576.25085C285.639,575.96216,285.5398,575.52014,285.5127,575.2675C285.48566,575.0239,285.37738,574.65405,285.27817,574.4646C285.17892,574.2661,285.09772,573.98645,285.09772,573.8331C285.09772,573.67975,285.01654,573.41815,284.92633,573.2377C284.8271,573.05725,284.72784,572.7145,284.69177,572.4709C284.6557,572.2273,284.56546,571.9386,284.4933,571.82135C284.42114,571.70404,284.3219,571.3612,284.2768,571.0545C284.22266,570.7478,284.13245,570.414,284.06927,570.31476C284.00613,570.2155,283.90692,569.9449,283.85278,569.71936C283.7896,569.48474,283.50095,568.93445,283.20322,568.4834C282.7251,567.7707,282.65292,567.6083,282.58075,567.04895C282.53564,566.7062,282.44543,566.3002,282.36423,566.1559C282.29205,566.0115,282.20184,565.7138,282.16577,565.4883C282.12967,565.26276,281.9673,564.85675,281.79587,564.5771C281.5523,564.1621,281.426,564.05383,281.1283,563.9636C280.69525,563.83734,280.5419,563.5847,280.4607,562.8269C280.43365,562.52924,280.3434,561.9158,280.27124,561.4737C280.1991,561.02264,280.09985,559.71454,280.04572,558.5598C279.9555,556.45776,279.98257,556.10596,280.2442,556.10596C280.47876,556.10596,283.54605,557.70276,283.97006,558.03656C284.54742,558.5057,284.64667,558.5688,285.4496,558.9477C285.81042,559.11914,286.2254,559.2634,286.36978,559.2634C286.5141,559.2634,286.78476,559.34467,286.98322,559.4529C287.1817,559.5521,287.5606,559.66943,287.8222,559.7055C288.08383,559.7416,288.42667,559.8318,288.57098,559.913C288.72437,559.9942,289.1213,560.1024,289.4551,560.1476C289.7979,560.20166,290.12268,560.2919,290.18585,560.33704C290.249,560.3911,290.64594,560.4813,291.0609,560.53546C291.4759,560.5896,291.86383,560.6708,291.90894,560.7069C292.05328,560.8152,292.91034,560.97754,293.34335,560.97754C293.55988,560.97754,293.92975,561.04065,294.17334,561.11285C294.4169,561.18506,295.10254,561.2933,295.69794,561.3474C296.29337,561.3925,297.1053,561.4827,297.50226,561.52783C298.62994,561.66766,301.06122,561.73755,303.47784,561.73755C305.89447,561.73755,308.29645,561.66766,309.36548,561.52783C309.73535,561.4827,310.5653,561.3925,311.19684,561.3474C311.83734,561.2933,312.43274,561.2121,312.52298,561.15796C312.6132,561.11285,313.0823,561.0317,313.55145,560.97754C314.02054,560.93243,314.5799,560.82416,314.7964,560.752C315.0129,560.6798,315.48203,560.5716,315.8519,560.5265C316.22177,560.47235,316.60968,560.38214,316.70892,560.319C316.8172,560.2468,317.14197,560.1656,317.4397,560.1295C317.73737,560.09344,318.13434,559.98517,318.3238,559.89496C318.51324,559.7957,318.78387,559.71454,318.93726,559.71454C319.0816,559.71454,319.44244,559.6153,319.74014,559.489C320.03784,559.3627,320.3987,559.2634,320.54306,559.2634C320.6964,559.2634,321.1024,559.1101,321.46326,558.9297C322.34735,558.4606,322.34735,558.4606,322.89764,558.0005C323.466,557.52234,323.39383,557.56744,324.80118,556.8457C325.5513,556.4646,326.0053,556.29034,326.28558,556.29034C326.4233,556.29034,326.51907,556.3324,326.58743,556.41266C326.66864,556.5119,326.66864,556.80963,326.60547,557.61255C326.55133,558.1989,326.50623,559.05597,326.50623,559.5251C326.50623,559.9942,326.46115,560.64374,326.41602,560.9685C326.25366,561.9879,326.15442,562.7187,326.10028,563.251C326.04614,563.71106,326.01007,563.7832,325.7394,563.9546C325.36053,564.1892,324.91846,564.956,324.82825,565.54236C324.79218,565.78595,324.71097,566.07465,324.6388,566.1829C324.56665,566.2912,324.4674,566.67004,324.42227,567.03094C324.35913,567.56323,324.27795,567.7707,323.93512,568.2849C323.7096,568.6187,323.52917,568.9254,323.52917,568.96155C323.52917,568.9886,323.466,569.0788,323.39383,569.151C323.32166,569.22314,323.22244,569.4577,323.1683,569.6652C323.1142,569.8727,323.01495,570.15234,322.94275,570.2787C322.8706,570.40497,322.77136,570.7658,322.72626,571.0725C322.67212,571.3883,322.59094,571.68604,322.54584,571.74915C322.50073,571.8033,322.4015,572.11,322.3203,572.4348C322.2481,572.7595,322.12183,573.1384,322.04962,573.2918C321.96844,573.43616,321.9053,573.6888,321.9053,573.8331C321.9053,573.98645,321.8241,574.2661,321.72485,574.45557C321.63464,574.65405,321.50836,575.0961,321.46326,575.448C321.40912,575.80884,321.30988,576.2418,321.2287,576.42224C321.1565,576.6117,321.09338,576.9545,321.09338,577.1981C321.09338,577.5229,321.03925,577.6853,320.8949,577.84766C320.20026,578.5874,320.19122,578.60547,320.19122,579.68805L320.19122,580.68945L320.48895,580.933C321.2828,581.61865,323.59232,582.8004,325.37854,583.441C325.63116,583.5312,326.11832,583.7116,326.46115,583.8469C326.81296,583.98224,327.2821,584.14465,327.51666,584.20776C327.7422,584.27094,328.03088,584.38824,328.14813,584.4694C328.2564,584.5416,328.53607,584.63184,328.7526,584.6679C328.96912,584.704,329.2217,584.8032,329.32092,584.90247C329.4743,585.0558,329.7179,585.0648,333.60614,585.0648C337.21472,585.0648,337.74698,585.0468,337.88232,584.9205C337.9635,584.8483,338.28827,584.72205,338.59497,584.64984C338.90173,584.5777,339.23553,584.4604,339.3438,584.38824C339.45203,584.31604,339.59637,584.2529,339.66855,584.2529C339.88507,584.2529,340.76917,583.61237,340.8684,583.38684C340.9496,583.2245,340.9496,582.9087,340.87744,582.2411C340.8233,581.7359,340.7782,581.16754,340.76917,580.97815C340.76016,580.7887,340.70605,580.52704,340.63385,580.3917C340.57068,580.2564,340.4805,580.0128,340.4444,579.85944C340.41733,579.6971,340.34518,579.56177,340.30005,579.56177C340.24594,579.56177,340.1557,579.4264,340.08353,579.2731C339.9482,578.9393,339.59637,578.5874,338.59497,577.78455C338.2251,577.4778,337.68384,577.00867,337.3861,576.729C337.0974,576.44934,336.84485,576.2238,336.83582,576.2238C336.82678,576.2238,336.6554,576.07947,336.46594,575.89905C336.26746,575.7186,335.95172,575.466,335.75323,575.3397C335.55475,575.2224,335.12173,574.8435,334.79697,574.50977L334.20154,573.89624L334.09326,573.0934C334.03015,572.66034,333.976,572.0739,333.967,571.8033C333.95795,571.0094,334.1835,569.6201,334.37296,569.3494C334.4632,569.22314,334.53534,569.0427,334.53534,568.96155C334.53534,568.8804,334.63458,568.6638,334.76086,568.4834C334.88718,568.303,334.98642,568.1045,334.98642,568.0413C334.98642,567.9782,335.0676,567.8609,335.15784,567.7707C335.25708,567.6805,335.4375,567.40985,335.5728,567.1572L335.80737,566.7062L335.61792,566.5528C335.23,566.23706,335.23,565.5514,335.61792,565.1094C335.80737,564.8928,336.46594,563.8283,336.64636,563.4404C336.72757,563.28705,336.82678,563.13367,336.88092,563.0976C336.92603,563.0705,337.0523,562.8721,337.15155,562.66455C337.4583,562.033,337.61166,561.75336,337.7019,561.609C337.74698,561.53687,337.8462,561.32935,337.92743,561.15796C338.0086,560.9866,338.19806,560.5535,338.36948,560.2107C338.92877,559.00183,339.11826,558.58685,339.2265,558.25305C339.28064,558.0636,339.36182,557.8922,339.40692,557.8651C339.45203,557.8381,339.55127,557.6035,339.62344,557.3329C339.70465,557.0712,339.8219,556.8006,339.8941,556.74646C339.9572,556.6923,340.03845,556.52094,340.0655,556.3766C340.10156,556.19617,340.23688,556.0428,340.4805,555.88043C340.9496,555.59174,341.7525,554.7798,341.7525,554.59937C341.7525,554.52716,341.83368,554.34674,341.93292,554.2114C342.03217,554.0671,342.14044,553.7694,342.1765,553.53485C342.2036,553.3003,342.30283,552.9665,342.39304,552.786C342.49228,552.6056,342.56445,552.353,342.56445,552.2177C342.56445,552.0914,342.6637,551.66736,342.78998,551.28845C342.9163,550.9006,343.0155,550.38635,343.0155,550.1157C343.0155,549.85406,343.06964,549.47516,343.1328,549.2857C343.31323,548.7805,343.5027,546.3357,343.4395,545.3433C343.41248,544.766,343.3313,544.36,343.20496,544.0803C343.09674,543.8548,343.0155,543.5481,343.0155,543.40375C343.0155,543.2594,342.94336,543.04285,342.84412,542.9256C342.7539,542.8083,342.65466,542.58276,342.6186,542.42944C342.58252,542.267,342.47424,542.06854,342.375,541.97833C342.2848,541.89716,342.2036,541.7528,342.2036,541.6626C342.2036,541.5724,342.10437,541.38293,341.97803,541.2386C341.85175,541.0852,341.7525,540.94086,341.7525,540.9138C341.7525,540.72437,340.80524,539.67786,340.18277,539.1907C339.05508,538.2976,339.028,538.27954,338.66718,538.16223C338.47772,538.0991,338.3063,538.01794,338.27924,537.9728C338.2522,537.92773,337.99957,537.8285,337.7199,537.74725C337.44025,537.6661,337.13354,537.5488,337.02527,537.48566C336.917,537.41345,336.5832,537.3413,336.26746,537.30524C335.96075,537.27814,335.5728,537.17896,335.41043,537.0977C335.15784,536.9624,334.83307,536.94434,332.9566,536.9353C330.88165,536.9353,330.77338,536.94434,330.41254,537.1338C330.20502,537.2511,329.88025,537.3413,329.6908,537.3413C329.50137,537.35034,329.1856,537.4044,328.98715,537.48566C328.49237,537.6618,327.0152,537.82227,325.89655,537.82227C325.81186,537.82227,325.72922,537.82135,325.6492,537.81946C325.5935,537.8187,325.53845,537.81836,325.48392,537.81836C324.87607,537.81836,324.33795,537.8652,323.7998,537.9728C323.3307,538.063,322.54584,538.16223,322.05865,538.19836C321.5715,538.2254,321.04825,538.3066,320.88586,538.3788C320.7325,538.4419,320.23633,538.54114,319.78525,538.6043C319.3432,538.65845,318.93726,538.7396,318.88312,538.7847C318.76584,538.875,317.90878,539.0554,317.584,539.0554C317.2412,539.0554,317.01566,538.79376,317.07883,538.45996C317.1059,538.3156,317.169,537.3864,317.21414,536.39404C317.25925,535.4017,317.3675,534.265,317.4397,533.86804C317.52087,533.47107,317.62012,532.82153,317.66522,532.4246C317.71033,532.02765,317.7915,531.55853,317.84564,531.38715C317.89978,531.21576,317.99902,530.76465,318.07117,530.38574C318.13434,530.00684,318.26062,529.54675,318.3328,529.3573C318.414,529.16785,318.47714,528.9153,318.47714,528.7799C318.48615,528.6536,318.54932,528.383,318.6215,528.1845C318.7027,527.986,318.81995,527.59814,318.88312,527.3185C318.94626,527.0388,319.0816,526.56067,319.18982,526.2539C319.33417,525.8389,319.37927,525.4871,319.37927,524.8376C319.37927,524.188,319.42438,523.87225,319.5597,523.5565C319.65894,523.32196,319.77625,522.9701,319.82135,522.77167C319.9386,522.27545,320.1822,521.5989,320.4348,521.03955C320.54306,520.7869,320.6423,520.52527,320.6423,520.4712C320.6423,520.41705,320.72348,520.21857,320.81372,520.03815C320.91293,519.8577,321.1836,519.2984,321.41815,518.8022C321.64368,518.306,322.05865,517.449,322.3203,516.9077C322.59094,516.3574,322.80743,515.8612,322.80743,515.80707C322.80743,515.7529,322.86157,515.6627,322.93375,515.60864C323.00592,515.5455,323.0871,515.3921,323.1232,515.2568C323.1773,515.03125,323.36676,514.58014,323.8449,513.56976C323.9622,513.31714,324.07947,513.02844,324.11554,512.9112C324.14264,512.8029,324.21478,512.7127,324.2599,512.7127C324.305,512.7127,324.3411,512.64056,324.3411,512.5593C324.3411,512.47815,324.4674,512.14435,324.62076,511.81958C324.7741,511.4948,324.99966,510.99866,325.12598,510.728C325.6492,509.57324,325.72137,509.41086,325.83865,509.19434C325.95593,508.9688,326.05518,508.76132,326.2356,508.35535C326.2807,508.2471,326.3619,508.09375,326.407,508.02155C326.4521,507.9494,326.84003,507.17352,327.27307,506.30746C327.69708,505.4414,328.08502,504.6656,328.13013,504.59338C328.1752,504.52124,328.31958,504.2145,328.4549,503.91678C328.5902,503.61908,328.73456,503.31238,328.77063,503.24017C328.81573,503.168,328.91498,502.9605,328.99615,502.7891C329.07733,502.6177,329.17657,502.41022,329.2217,502.33804C329.2668,502.26587,329.36603,502.05835,329.44727,501.88696C329.5194,501.71558,329.6367,501.4449,329.70886,501.30054C329.78104,501.1472,329.9615,500.7232,330.11484,500.35333C330.2682,499.98343,330.46667,499.5143,330.5659,499.31586C330.65613,499.11737,330.76437,498.82867,330.80045,498.68433C330.83655,498.53098,330.91772,498.33252,330.9809,498.23328C331.035,498.13403,331.1162,497.9536,331.15228,497.82733C331.2335,497.54767,331.59436,496.71765,331.82892,496.2756C331.92813,496.09518,332.00934,495.8877,332.00934,495.83356C332.00934,495.77042,332.09055,495.5539,332.18073,495.35544C332.35217,494.99457,332.4875,494.65173,332.8213,493.71353C332.91147,493.46094,333.0468,493.12714,333.128,492.97375C333.20917,492.8204,333.27234,492.62192,333.27234,492.53174C333.27234,492.44147,333.37158,492.1618,333.49786,491.91827C333.61517,491.66565,333.72342,491.37695,333.72342,491.25967C333.72342,490.99805,334.22864,489.88843,334.33685,489.88843C334.5083,489.88843,334.88718,489.10355,334.98642,488.53522C335.04053,488.21045,335.13077,487.9037,335.17587,487.84958C335.21198,487.79547,335.29315,487.5338,335.3473,487.26315C335.4014,486.99252,335.51868,486.55048,335.61792,486.27982C335.70813,486.0092,335.91562,485.35962,336.06897,484.8364C336.23138,484.31317,336.4118,483.72675,336.47498,483.52832C336.5381,483.32983,336.61932,482.99603,336.6554,482.7885C336.68243,482.58102,336.77267,482.3916,336.84485,482.3645C336.917,482.33746,337.0343,482.15704,337.11548,481.94952C337.19666,481.75104,337.2869,481.58868,337.33197,481.58868C337.3681,481.58868,337.44928,481.4173,337.50342,481.20074C337.56653,480.99326,337.66577,480.77673,337.71088,480.7136C337.80112,480.60535,337.9635,480.037,338.36948,478.47626C338.61304,477.53802,338.73035,477.13208,338.87466,476.7802C338.94308,476.61896,339.0512,476.53976,339.27078,476.53976C339.4565,476.53976,339.72195,476.59644,340.1106,476.70807C340.4444,476.8073,340.8684,476.90656,341.04883,476.94263C341.536,477.0238,341.77957,477.36664,341.68936,477.84476C341.65326,478.0432,341.62622,478.38605,341.63525,478.61157C341.65326,478.83713,341.58112,479.2521,341.48187,479.54077C341.38263,479.8205,341.30145,480.1272,341.30145,480.22644C341.30145,480.31665,341.22028,480.56924,341.13004,480.78577C341.0308,481.00232,340.93155,481.3451,340.89548,481.54358C340.8594,481.74203,340.76016,482.1029,340.66992,482.3555C340.58875,482.5991,340.4805,482.96896,340.45343,483.16745C340.41733,483.3659,340.30908,483.76282,340.20984,484.04254C340.11963,484.33118,340.03845,484.674,340.03845,484.80936C340.03845,484.94464,339.9843,485.17023,339.91214,485.30548C339.83997,485.43182,339.73172,485.8378,339.66855,486.20767C339.61444,486.56854,339.5152,486.94742,339.4701,487.04663C339.41595,487.14587,339.29868,487.5699,339.21747,487.9939C339.12726,488.4179,338.95587,489.2479,338.82053,489.84332C338.56793,490.971,338.18903,492.96472,338.0537,493.90295C337.90936,494.92236,337.77405,497.42133,337.83722,498.05286C337.95447,499.27075,338.07175,499.37,340.4895,500.0917C340.81427,500.19095,341.38263,500.30823,341.77057,500.3443C342.26672,500.39844,342.53738,500.4796,342.7539,500.63297C343.29517,501.0209,345.18066,501.6073,346.19107,501.68848C346.68726,501.7336,346.9579,501.8058,347.13834,501.9411C347.63452,502.31097,349.92596,503.09583,350.52136,503.09583C350.87323,503.09583,351.01758,503.03268,351.42352,502.72595C352.16327,502.17563,353.28195,500.82245,353.6067,500.1007C353.6789,499.94733,353.77814,499.812,353.83224,499.812C353.87738,499.812,353.94952,499.7218,353.9856,499.60452C354.0127,499.49628,354.09387,499.3429,354.15704,499.27075C354.2292,499.19858,354.4457,498.81067,354.66223,498.4137C354.8697,498.01675,355.05917,497.67395,355.09525,497.64685C355.1223,497.6198,355.42905,497.05145,355.76285,496.38388C356.10565,495.7163,356.41238,495.10284,356.4485,495.03064C356.52066,494.89532,356.674,494.5525,357.1341,493.5421C357.26038,493.2444,357.4679,492.81134,357.59418,492.5678C357.7115,492.33325,357.81073,492.07162,357.81073,491.98138C357.81073,491.89117,357.87384,491.7288,357.95505,491.6115C358.0904,491.42206,358.1896,491.20557,358.62262,490.06885C358.70383,489.84332,358.8662,489.48245,358.96545,489.2569C359.07373,489.03137,359.16394,488.80585,359.16394,488.76074C359.16394,488.7066,359.24512,488.50812,359.34436,488.3097C359.4436,488.1112,359.52478,487.87662,359.52478,487.76837C359.52478,487.66913,359.58795,487.50674,359.66913,487.4075C359.74133,487.3083,359.85858,487.04663,359.93076,486.82114C360.00293,486.59558,360.18335,486.07233,360.33673,485.64832C360.4901,485.22433,360.67953,484.674,360.76074,484.43042C360.8329,484.1778,360.93213,483.93427,360.9682,483.88916C361.00433,483.83502,361.10358,483.55536,361.19376,483.25763C361.27496,482.95996,361.3742,482.67126,361.4193,482.62613C361.45538,482.57202,361.5366,482.3104,361.59973,482.03976C361.66287,481.7691,361.77115,481.46237,361.82526,481.36316C361.88843,481.26392,361.98767,480.95718,362.0508,480.68652C362.11395,480.4159,362.19513,480.14526,362.23126,480.10013C362.27634,480.04602,362.37555,479.7483,362.44775,479.42352C362.52893,479.09875,362.6372,478.75592,362.6823,478.65668C362.72742,478.55746,362.84467,478.16956,362.95294,477.79962C363.0522,477.42975,363.22357,476.83435,363.3228,476.49155C363.4311,476.1397,363.5664,475.6345,363.63855,475.36386C363.71075,475.09323,363.84607,474.60605,363.9453,474.2813C363.97513,474.1819,364.00565,474.0771,364.03647,473.96823L364.0328,473.96823Q364.28583,473.2413,364.47504,472.7202Q364.64938,472.13055,367.61682,464.35553Q368.1768,462.7406,368.38846,461.70123Q368.75247,460.01312,368.32742,459.11136Q367.92493,458.18427,366.4876,457.60507L366.4695,457.5976L363.84955,456.80228L363.84592,456.80228C363.72314,456.7619,363.612,456.72412,363.53934,456.69846C363.24548,456.60052,362.98,456.52264,362.7446,456.46573L362.74097,456.46573L360.06274,455.6527L360.05914,455.6527C359.7396,455.5328,359.36288,455.41074,359.03763,455.3272C358.84818,455.2821,358.46027,455.1648,358.1806,455.06555C358.06204,455.02814,357.9489,454.99826,357.8393,454.97665L357.83572,454.97665L355.61795,454.30344L355.61438,454.30344C355.58026,454.2878,355.54526,454.27115,355.51025,454.25363C355.31177,454.15442,355.09525,454.0822,355.02307,454.0732C354.73438,454.0732,354.20212,453.85672,354.20212,453.7394C354.20212,453.64923,353.99463,453.62213,353.3,453.62213C352.64142,453.62213,352.39783,453.64923,352.39783,453.7304C352.39783,453.79358,352.19934,454.05518,351.96478,454.3168C351.58594,454.73178,351.4596,454.91223,351.0807,455.5347C351.02658,455.6249,350.91833,455.76926,350.84613,455.85043C350.76495,455.94064,350.67474,456.10306,350.64767,456.20227C350.61157,456.31055,350.51236,456.4639,350.41312,456.5541C350.31387,456.64432,350.23267,456.7887,350.23267,456.86987C350.23267,456.96008,350.1515,457.12247,350.06128,457.23978C349.97107,457.36606,349.82672,457.60062,349.75452,457.772C349.67334,457.94342,349.54706,458.187,349.4749,458.3133C349.3125,458.593,348.50058,460.29803,347.87805,461.69635C347.78787,461.8948,347.61646,462.29178,347.49017,462.5714C347.35486,462.8511,347.2556,463.11273,347.2556,463.15784C347.2556,463.20294,347.1834,463.37436,347.08423,463.54575C346.994,463.71716,346.88574,463.96072,346.8496,464.08704C346.81354,464.21332,346.73236,464.42987,346.6602,464.58322C346.39856,465.16962,345.9024,466.52283,345.9024,466.64914C345.9024,466.71228,345.84827,466.82056,345.7761,466.87466C345.71292,466.9288,345.63174,467.10922,345.59564,467.26257C345.55957,467.425,345.46033,467.7227,345.37012,467.92114C345.27087,468.11963,345.1536,468.42636,345.0995,468.59778C345.01828,468.88647,344.86493,469.31046,344.22437,471.07867C344.09808,471.42145,343.9357,471.90866,343.87256,472.15222C343.80038,472.38678,343.6831,472.65744,343.61096,472.73862C343.52972,472.82886,343.4666,472.9371,343.4666,472.9912C343.4666,473.04535,343.41248,473.13556,343.34027,473.1897C343.26813,473.25284,343.1328,473.46936,343.03357,473.68588C342.85242,474.06027,342.66318,474.22852,342.3522,474.22852C342.1986,474.22852,342.0153,474.18747,341.7886,474.10992C341.4999,474.00162,341.19318,473.92044,341.112,473.92044C340.85034,473.92044,339.6505,473.4874,339.57837,473.36108C339.53323,473.29797,339.49716,473.1085,339.49716,472.9371C339.49716,472.7657,339.41595,472.44092,339.30768,472.2154C339.0712,471.6816,338.61713,471.38058,338.09705,471.38058C337.9227,471.38058,337.74097,471.4144,337.55753,471.48462C337.46912,471.5178,337.40326,471.5359,337.34338,471.5359C337.25665,471.5359,337.18246,471.49786,337.07037,471.41248C336.93506,471.32227,336.7907,471.1057,336.73657,470.94336C336.67343,470.76294,336.48395,470.52838,336.25845,470.36597C335.99884,470.1756,335.77615,470.0922,335.41104,470.0922C335.2052,470.0922,334.95407,470.1187,334.62555,470.1675C334.5304,470.18085,334.45047,470.18893,334.3805,470.18893C334.11877,470.18893,333.9958,470.07565,333.73242,469.6984C333.61517,469.536,333.31744,469.30145,333.05582,469.17517C332.8075,469.05594,332.69043,469.00238,332.56912,469.00238C332.47006,469.00238,332.3682,469.0381,332.18976,469.10297C331.96423,469.18417,331.67554,469.32852,331.54022,469.41873C331.39667,469.52008,331.30646,469.57397,331.19284,469.57397C331.06372,469.57397,330.90433,469.50433,330.602,469.35556C330.32028,469.218,330.1575,469.16132,329.972,469.16132C329.90207,469.16132,329.8289,469.16937,329.74493,469.18417C329.20367,469.27435,328.73456,469.73447,328.53607,470.357C328.4549,470.62762,328.3376,470.8802,328.28348,470.9163C328.22934,470.94937,328.07498,470.9644,327.87286,470.9644C327.46857,470.9644,326.87314,470.90427,326.50623,470.80804C325.91083,470.6637,324.70197,470.49225,324.23285,470.49225C324.05243,470.49225,323.79077,470.44717,323.64642,470.393C323.2585,470.2487,317.01566,469.60815,313.96643,469.40967C312.32236,469.29895,305.14423,469.0917,303.35403,469.0917C303.24835,469.0917,303.16144,469.09244,303.09555,469.09393C302.55426,469.112,300.98453,469.14807,299.62228,469.17517C296.7264,469.23828,293.84857,469.3736,292.766,469.4999C292.34198,469.55405,291.41278,469.63525,290.69104,469.68036C289.96933,469.73447,289.0221,469.81567,288.57098,469.86078C288.12894,469.91492,286.99225,470.03217,286.04498,470.1314C285.10675,470.22162,284.18658,470.3389,284.01517,470.393C283.84375,470.44717,283.53702,470.49225,283.34756,470.49225C282.80627,470.49225,281.49817,470.68173,281.04712,470.81705C280.82156,470.88922,280.46973,470.94336,280.26224,470.94336C280.04572,470.94336,279.6668,470.98846,279.4142,471.0426C279.2446,471.07794,279.1345,471.09805,279.05084,471.09805C278.92093,471.09805,278.8548,471.04956,278.72858,470.93433C278.6113,470.82608,278.5121,470.6637,278.5121,470.5735C278.5121,470.11337,277.98883,469.42773,277.49265,469.23828C277.3375,469.18054,277.20688,469.15024,277.0748,469.15024C276.87668,469.15024,276.67532,469.21844,276.383,469.36456C276.10202,469.50745,275.94675,469.57492,275.81763,469.57492C275.70218,469.57492,275.60764,469.52097,275.46283,469.41873C275.32748,469.32852,275.0298,469.18417,274.79523,469.112C274.61584,469.04822,274.51044,469.01437,274.41132,469.01437C274.28607,469.01437,274.17084,469.06836,273.92917,469.18417C273.67657,469.30145,273.38788,469.536,273.2706,469.6984C273.00726,470.07565,272.88428,470.18893,272.62253,470.18893C272.55255,470.18893,272.47266,470.18085,272.37747,470.1675C272.0799,470.1241,271.83984,470.10095,271.63644,470.10095C271.24786,470.10095,270.99304,470.1855,270.72656,470.375C270.492,470.5464,270.3296,470.7539,270.2845,470.92532C270.23938,471.07867,270.09503,471.2862,269.95972,471.38544C269.82642,471.47925,269.75256,471.5217,269.6494,471.5217C269.5641,471.5217,269.45874,471.49265,269.2831,471.43954C269.11975,471.38953,268.98593,471.3629,268.85986,471.3629C268.64478,471.3629,268.45215,471.4403,268.17346,471.61093C267.81262,471.82745,267.57806,472.29657,267.5149,472.9281C267.4608,473.39722,267.44275,473.4333,267.12698,473.5776C266.93753,473.66785,266.59473,473.7851,266.36017,473.83923C266.11658,473.89337,265.68353,474.01068,265.38583,474.10992C265.08813,474.2091,264.7363,474.2813,264.60098,474.2813C264.33032,474.2813,263.98752,473.97455,263.98752,473.73096C263.98752,473.6498,263.92438,473.53253,263.8522,473.46936C263.65372,473.30698,263.25677,472.57623,263.12146,472.11615C263.0583,471.89063,262.87787,471.36734,262.72452,470.94336C262.57114,470.51935,262.3817,469.97803,262.3095,469.73447C262.24637,469.4999,262.14716,469.25632,262.10202,469.19318C262.05692,469.13904,261.97574,468.9135,261.9216,468.688C261.8675,468.46246,261.74118,468.11963,261.65094,467.92114C261.55173,467.7227,261.37128,467.25354,261.23596,466.8837C261.10065,466.51382,260.92023,466.0447,260.83002,465.84622C260.7398,465.64774,260.6225,465.323,260.55936,465.1245C260.49622,464.92603,260.415,464.71854,260.37894,464.67343C260.34283,464.6193,260.26166,464.4208,260.1985,464.22238C260.13535,464.0239,260.0271,463.78033,259.97296,463.6811C259.90982,463.58185,259.8286,463.4014,259.79254,463.27512C259.72037,463.03152,259.4858,462.49927,258.7731,460.9295C258.6739,460.70398,258.46637,460.2349,258.30402,459.89206C258.15063,459.5402,257.97922,459.17935,257.9251,459.08014C257.86194,458.9809,257.65445,458.57492,257.456,458.17798C257.2575,457.78104,257.02295,457.35703,256.93274,457.23978C256.84253,457.12247,256.77036,456.96008,256.77036,456.86987C256.77036,456.7887,256.68915,456.64432,256.5899,456.5541C256.4907,456.4639,256.4095,456.3376,256.4095,456.27448C256.4095,456.21133,256.31927,456.04892,256.21103,455.9046C256.09375,455.76926,255.96744,455.5888,255.91331,455.50763C255.6607,455.10165,255.43518,454.79492,255.03824,454.33484C254.80368,454.05518,254.6052,453.77548,254.6052,453.72137C254.6052,453.65823,254.3075,453.62213,253.70305,453.62213 Z"/> </g> </g> </svg>